<?xml version="1.0" encoding="UTF-8" standalone="no"?>
<svg
   xmlns:dc="http://purl.org/dc/elements/1.1/"
   xmlns:cc="http://creativecommons.org/ns#"
   xmlns:rdf="http://www.w3.org/1999/02/22-rdf-syntax-ns#"
   xmlns:svg="http://www.w3.org/2000/svg"
   xmlns="http://www.w3.org/2000/svg"
   xmlns:sodipodi="http://sodipodi.sourceforge.net/DTD/sodipodi-0.dtd"
   xmlns:inkscape="http://www.inkscape.org/namespaces/inkscape"
   height="480pt"
   viewBox="-31 0 479 480"
   width="480pt"
   version="1.1"
   id="svg18"
   sodipodi:docname="chart.svg"
   inkscape:version="1.0.1 (3bc2e813f5, 2020-09-07)">
  <metadata
     id="metadata24">
    <rdf:RDF>
      <cc:Work
         rdf:about="">
        <dc:format>image/svg+xml</dc:format>
        <dc:type
           rdf:resource="http://purl.org/dc/dcmitype/StillImage" />
      </cc:Work>
    </rdf:RDF>
  </metadata>
  <defs
     id="defs22" />
  <sodipodi:namedview
     pagecolor="#ffffff"
     bordercolor="#666666"
     borderopacity="1"
     objecttolerance="10"
     gridtolerance="10"
     guidetolerance="10"
     inkscape:pageopacity="0"
     inkscape:pageshadow="2"
     inkscape:window-width="1503"
     inkscape:window-height="877"
     id="namedview20"
     showgrid="false"
     inkscape:zoom="0.978125"
     inkscape:cx="320"
     inkscape:cy="270.08997"
     inkscape:window-x="-8"
     inkscape:window-y="-8"
     inkscape:window-maximized="1"
     inkscape:current-layer="svg18"
     inkscape:document-rotation="0" />
  <path
     d="m 296.5,56.5 h -64 v 208 h 64 z m 0,0"
     fill="#ee638c"
     id="path2" />
  <path
     d="m 184.5,128 h -64 v 208 h 64 z m 0,0"
     fill="#8cb28c"
     id="path4" />
  <path
     d="m 72.5,224 h -64 v 208 h 64 z m 0,0"
     fill="#ee638c"
     id="path6"
     style="fill:#8cb28c;fill-opacity:1" />
  <path
     d="m 300.5,56 h -64 v 208 h 64 z m 0,0"
     fill="#8cb28c"
     id="path8" />
  <path
     d="m 264.5,0.5 c 4.41797,0 8,3.58203 8,8 v 40 h 24 c 4.41797,0 8,3.58203 8,8 v 208 c 0,4.41797 -3.58203,8 -8,8 h -24 v 32 c 0,4.41797 -3.58203,8 -8,8 -4.41797,0 -8,-3.58203 -8,-8 v -32 h -24 c -4.41797,0 -8,-3.58203 -8,-8 v -208 c 0,-4.41797 3.58203,-8 8,-8 h 24 v -40 c 0,-4.41797 3.58203,-8 8,-8 z m -24,64 v 192 h 48 v -192 z m 0,0"
     id="path10" />
  <path
     d="m 152.5,72 c 4.41797,0 8,3.582031 8,8 v 40 h 24 c 4.41797,0 8,3.58203 8,8 v 208 c 0,4.41797 -3.58203,8 -8,8 h -24 v 32 c 0,4.41797 -3.58203,8 -8,8 -4.41797,0 -8,-3.58203 -8,-8 v -32 h -24 c -4.41797,0 -8,-3.58203 -8,-8 V 128 c 0,-4.41797 3.58203,-8 8,-8 h 24 V 80 c 0,-4.417969 3.58203,-8 8,-8 z m -24,64 v 192 h 48 V 136 Z m 0,0"
     id="path12" />
  <path
     d="m 40.5,168 c 4.417969,0 8,3.58203 8,8 v 40 h 24 c 4.417969,0 8,3.58203 8,8 v 208 c 0,4.41797 -3.582031,8 -8,8 h -24 v 32 c 0,4.41797 -3.582031,8 -8,8 -4.417969,0 -8,-3.58203 -8,-8 v -32 h -24 c -4.417969,0 -8,-3.58203 -8,-8 V 224 c 0,-4.41797 3.582031,-8 8,-8 h 24 v -40 c 0,-4.41797 3.582031,-8 8,-8 z m -24,64 v 192 h 48 V 232 Z m 0,0"
     id="path14" />
</svg>
