<?xml version="1.0" encoding="UTF-8" standalone="no"?>
<svg
   xmlns:dc="http://purl.org/dc/elements/1.1/"
   xmlns:cc="http://creativecommons.org/ns#"
   xmlns:rdf="http://www.w3.org/1999/02/22-rdf-syntax-ns#"
   xmlns:svg="http://www.w3.org/2000/svg"
   xmlns="http://www.w3.org/2000/svg"
   xmlns:sodipodi="http://sodipodi.sourceforge.net/DTD/sodipodi-0.dtd"
   xmlns:inkscape="http://www.inkscape.org/namespaces/inkscape"
   version="1.1"
   x="0px"
   y="0px"
   viewBox="0 0 48 60"
   style="enable-background:new 0 0 48 48;"
   xml:space="preserve"
   id="svg14"
   sodipodi:docname="edit.svg"
   inkscape:version="1.0.1 (3bc2e813f5, 2020-09-07)"><metadata
     id="metadata20"><rdf:RDF><cc:Work
         rdf:about=""><dc:format>image/svg+xml</dc:format><dc:type
           rdf:resource="http://purl.org/dc/dcmitype/StillImage" /></cc:Work></rdf:RDF></metadata><defs
     id="defs18" /><sodipodi:namedview
     pagecolor="#ffffff"
     bordercolor="#666666"
     borderopacity="1"
     objecttolerance="10"
     gridtolerance="10"
     guidetolerance="10"
     inkscape:pageopacity="0"
     inkscape:pageshadow="2"
     inkscape:window-width="1503"
     inkscape:window-height="877"
     id="namedview16"
     showgrid="false"
     inkscape:zoom="10.433333"
     inkscape:cx="24"
     inkscape:cy="46.325879"
     inkscape:window-x="-8"
     inkscape:window-y="-8"
     inkscape:window-maximized="1"
     inkscape:current-layer="svg14" /><g
     id="g8"><path
       d="M42.1,21.9c-0.4,0-0.7,0.3-0.7,0.7v18c0,1.8-1.4,3.2-3.2,3.2H6.6c-1.8,0-3.2-1.4-3.2-3.2V8.9c0-1.8,1.4-3.2,3.2-3.2h21   c0.4,0,0.7-0.3,0.7-0.7S28,4.4,27.6,4.4h-21c-2.5,0-4.5,2-4.5,4.5v31.6c0,2.5,2,4.5,4.5,4.5h31.6c2.5,0,4.5-2,4.5-4.5v-18   C42.8,22.2,42.5,21.9,42.1,21.9z"
       id="path2" /><path
       d="M34.9,9.9L20.7,24.1c-0.3,0.3-0.3,0.7,0,0.9c0.1,0.1,0.3,0.2,0.5,0.2s0.3-0.1,0.5-0.2l14.2-14.2c0.3-0.3,0.3-0.7,0-0.9   C35.5,9.7,35.1,9.7,34.9,9.9z"
       id="path4" /><path
       d="M42.5,4.1c-1.5-1.5-4.1-1.5-5.6,0l-20,20c-0.1,0.1-0.1,0.2-0.2,0.3l-2,8.8c-0.1,0.2,0,0.5,0.2,0.6c0.1,0.1,0.3,0.2,0.5,0.2   c0,0,0.1,0,0.1,0l8.8-2c0.1,0,0.2-0.1,0.3-0.2l18.1-18.1c0,0,0,0,0,0s0,0,0,0l1.9-1.9c0.7-0.7,1.2-1.7,1.2-2.8s-0.4-2-1.2-2.8   L42.5,4.1z M16.3,32.5l1.5-6.4l5,5L16.3,32.5z M24.1,30.5l-5.9-5.9L35.5,7.4l5.9,5.9L24.1,30.5z M43.8,10.9l-1.5,1.5l-5.9-5.9   L37.9,5c1-1,2.7-1,3.7,0l2.2,2.2C44.8,8.2,44.8,9.9,43.8,10.9z"
       id="path6" /></g></svg>
